<svg xmlns="http://www.w3.org/2000/svg" width="17.109" height="17.11" viewBox="0 0 17.109 17.11">
  <g id="Group_80" data-name="Group 80" transform="translate(-1326.042 -621.744)">
    <path id="Path_85" data-name="Path 85" d="M1341.647,621.744h-14.1a1.5,1.5,0,0,0-1.5,1.5v14.1a1.5,1.5,0,0,0,1.5,1.5h14.1a1.5,1.5,0,0,0,1.5-1.5v-14.1A1.5,1.5,0,0,0,1341.647,621.744Z" fill="#ffa426"/>
    <path id="Path_86" data-name="Path 86" d="M1343.151,623.248v14.1a1.5,1.5,0,0,1-1.5,1.5H1334.6v-17.11h7.051A1.5,1.5,0,0,1,1343.151,623.248Z" fill="#d4850f"/>
    <path id="Path_87" data-name="Path 87" d="M1341.647,622.747h-14.1a.5.5,0,0,0-.5.5v14.1a.5.5,0,0,0,.5.5h14.1a.5.5,0,0,0,.5-.5v-14.1A.5.5,0,0,0,1341.647,622.747Z" fill="#704639"/>
    <path id="Path_88" data-name="Path 88" d="M1342.148,623.248v14.1a.5.5,0,0,1-.5.5H1334.6v-15.1h7.051A.5.5,0,0,1,1342.148,623.248Z" fill="#5e382c"/>
    <path id="Path_89" data-name="Path 89" d="M1338.606,634.81a.5.5,0,0,1-.5-.5V630.3a.5.5,0,1,1,1,0v4.01A.5.5,0,0,1,1338.606,634.81Z" fill="#d4850f"/>
    <path id="Path_90" data-name="Path 90" d="M1337.072,634.128l-2.476-6.606-.531-1.413a.525.525,0,0,0-.942,0l-3.008,8.019a.5.5,0,1,0,.942.361l1.384-3.689h2.306l1.383,3.689a.509.509,0,0,0,.652.291A.521.521,0,0,0,1337.072,634.128Zm-4.26-4.33.782-2.086.782,2.086Z" fill="#ffa426"/>
    <g id="Group_79" data-name="Group 79">
      <circle id="Ellipse_28" data-name="Ellipse 28" cx="0.501" cy="0.501" r="0.501" transform="translate(1338.105 627.793)" fill="#d4850f"/>
      <path id="Path_91" data-name="Path 91" d="M1336.782,634.78a.509.509,0,0,1-.652-.291l-1.383-3.689h-.151v-3.278l2.476,6.606A.521.521,0,0,1,1336.782,634.78Z" fill="#d4850f"/>
    </g>
  </g>
</svg>
