<svg xmlns="http://www.w3.org/2000/svg" width="22.739" height="22.739" viewBox="0 0 22.739 22.739">
  <g id="Group_19" data-name="Group 19" transform="translate(-653.319 -884.328)">
    <g id="Group_17" data-name="Group 17">
      <circle id="Ellipse_14" data-name="Ellipse 14" cx="11.369" cy="11.369" r="11.369" transform="translate(653.319 884.328)" fill="#314963"/>
      <path id="Path_31" data-name="Path 31" d="M676.058,895.7a11.382,11.382,0,0,0-11.369-11.369v22.739A11.383,11.383,0,0,0,676.058,895.7Z" fill="#192a3e"/>
    </g>
    <g id="Group_18" data-name="Group 18">
      <path id="Path_32" data-name="Path 32" d="M663.133,899.909a1.094,1.094,0,0,1-.778-.322l-3.112-3.112a1.1,1.1,0,0,1,1.556-1.556l2.334,2.334,5.446-5.446a1.1,1.1,0,0,1,1.556,1.556l-6.224,6.224a1.1,1.1,0,0,1-.778.322Z" fill="#74b95c"/>
    </g>
  </g>
</svg>
