<svg xmlns="http://www.w3.org/2000/svg" width="124.949" height="33.255" viewBox="0 0 124.949 33.255">
  <g id="Group_70" data-name="Group 70" transform="translate(-376.051 -17.638)">
    <g id="Group_69" data-name="Group 69">
      <g id="Group_43" data-name="Group 43">
        <g id="Group_42" data-name="Group 42">
          <g id="Group_40" data-name="Group 40">
            <g id="Group_39" data-name="Group 39">
              <path id="Path_70" data-name="Path 70" d="M386.2,23.946a9.308,9.308,0,0,0-2.444,2.426,10.367,10.367,0,0,0-1.3,2.953,13.282,13.282,0,0,0-.463,3.556,9.437,9.437,0,0,0,.549,3.386,4.589,4.589,0,0,0,1.664,2.2,4.741,4.741,0,0,0,2.763.771,5.274,5.274,0,0,0,2.264-.451,4.19,4.19,0,0,0,1.579-1.261,5.654,5.654,0,0,0,.926-1.862l.241-.828h-5.422l.892-4.289h10.123l-3.054,13.244H390.6l1.167-5.832.514.6A10.481,10.481,0,0,1,390.7,41.61a6.236,6.236,0,0,1-2.351,1.881,7.69,7.69,0,0,1-3.242.639,8.354,8.354,0,0,1-4.582-1.3,9.159,9.159,0,0,1-3.259-3.706,12.5,12.5,0,0,1-1.218-5.6c0-.045,0-.091,0-.137a.067.067,0,0,1,0-.02C379.988,24.742,386.2,23.946,386.2,23.946Z" fill="#74b95c"/>
            </g>
          </g>
          <g id="Group_41" data-name="Group 41">
            <path id="Path_71" data-name="Path 71" d="M376.115,31.8a13.04,13.04,0,0,1,8.914-8.9,8.488,8.488,0,0,1,8.585,2.429l-1.651,2.023h7.594l-2.311-9.714-.991,3.238a11.713,11.713,0,0,0-13.537-.809A13.117,13.117,0,0,0,376.115,31.8Z" fill="#314963"/>
          </g>
        </g>
      </g>
      <g id="Group_44" data-name="Group 44">
        <path id="Path_72" data-name="Path 72" d="M467.191,37.811c-.2.224-.409.374-.614.6a5.5,5.5,0,0,1-2.8,1.647c-.956.224-1.5-.15-1.775-1.123a5.119,5.119,0,0,1-.205-2.022,8.077,8.077,0,0,1,.546-2.545A7.12,7.12,0,0,1,464.46,31.3a1.817,1.817,0,0,1,1.3-.524,2.542,2.542,0,0,1,1.707.973,16.008,16.008,0,0,1,.888,1.422h0c.342-1.272.615-2.545.888-3.818a1.035,1.035,0,0,0-.068-.449,4.567,4.567,0,0,0-2.254-1.8,5.092,5.092,0,0,0-4.506.6,9.412,9.412,0,0,0-3.073,2.995,12.18,12.18,0,0,0-1.98,5.54,8.789,8.789,0,0,0,.546,4.417,4.884,4.884,0,0,0,4.37,3.219,6,6,0,0,0,3.687-1.123.587.587,0,0,0,.137-.3c.273-1.2.546-2.4.819-3.518a6.655,6.655,0,0,0,.273-1.123h0c.069-.075,0-.075,0,0Z" fill="#74b95c"/>
      </g>
      <g id="Group_45" data-name="Group 45">
        <path id="Path_73" data-name="Path 73" d="M446.093,43.8c0-.075.068-.15.068-.225.2-.9.41-1.721.615-2.62.546-2.321,1.16-4.641,1.707-7.037a1.606,1.606,0,0,1,.478-.973c.546-.524,1.092-1.048,1.707-1.573a2.738,2.738,0,0,1,.682-.3,1.081,1.081,0,0,1,1.161,1.422l-.41,1.8c-.614,2.62-1.229,5.316-1.911,7.936-.137.6-.274,1.123-.41,1.722-.137.748-.137,1.5-.2,2.321,0,.3-.068.6-.068.9a4.335,4.335,0,0,0,2.868,3.519,3.859,3.859,0,0,0,2.253.074,5.8,5.8,0,0,0,3.141-1.572c.2-.149.2-.3.136-.6-.273-.823-.546-1.721-.819-2.545,0-.075-.068-.15-.137-.3a2.4,2.4,0,0,1-.546.374,1.286,1.286,0,0,1-1.912-.524,3.237,3.237,0,0,1-.273-2.1c.205-.824.41-1.722.615-2.546.614-2.47,1.229-5.016,1.843-7.486a8.627,8.627,0,0,0,.342-2.321,4.35,4.35,0,0,0-1.844-3.519,3.017,3.017,0,0,0-1.092-.524,4.356,4.356,0,0,0-2.185.075,7.616,7.616,0,0,0-2.117.9l.2-1.123h-4.438c-1.366,5.54-2.663,11.08-4.029,16.7C443.225,43.8,444.659,43.8,446.093,43.8Z" fill="#74b95c"/>
      </g>
      <g id="Group_46" data-name="Group 46">
        <path id="Path_74" data-name="Path 74" d="M412.226,27.03c-.273,1.2-.546,2.4-.888,3.669h2.049c-1.025,4.417-2.049,8.759-3.141,13.1h4.438c1.161-4.342,2.185-8.759,3.209-13.1h2.8c.273-1.2.614-2.4.887-3.669h-2.8c.546-2.47,1.16-4.791,1.707-7.262h-4.439c-.546,2.4-1.16,4.867-1.707,7.262Z" fill="#74b95c"/>
      </g>
      <g id="Group_47" data-name="Group 47">
        <path id="Path_75" data-name="Path 75" d="M418.986,43.8h4.438c1.98-8.385,4.028-16.77,6.008-25.155h-4.506Z" fill="#74b95c"/>
      </g>
      <g id="Group_48" data-name="Group 48">
        <path id="Path_76" data-name="Path 76" d="M478.048,38.485h0c0,.075.068.075,0,0C478.116,38.56,478.048,38.56,478.048,38.485Z" fill="#74b95c"/>
      </g>
      <g id="Group_50" data-name="Group 50">
        <g id="Group_49" data-name="Group 49">
          <path id="Path_77" data-name="Path 77" d="M437.353,28.453c.136-.524.273-.973.41-1.423h4.37c-.137.6-.274,1.123-.41,1.647-.683,2.77-1.3,5.615-1.98,8.385-.137.674-.342,1.273-.478,1.947-.137.6.136,1.048.683.973.2,0,.478-.075.682-.075a.476.476,0,0,0,.273-.075c-.136.449-.2.9-.341,1.273-.136.524-.273,1.048-.41,1.5a.593.593,0,0,1-.136.3,4.94,4.94,0,0,1-3.141,1.123,3,3,0,0,1-2.322-1.273,1.031,1.031,0,0,1-.2-.3c-.274.225-.547.375-.752.525A4.145,4.145,0,0,1,431,43.8a3.743,3.743,0,0,1-3.414-2.545,9.112,9.112,0,0,1-.546-4.268,14.131,14.131,0,0,1,2.185-6.663,8.34,8.34,0,0,1,3.414-3.294,3.416,3.416,0,0,1,3.482,0A7.817,7.817,0,0,1,437.353,28.453Zm-6.077,9.058c.068.45.068.824.137,1.273.2,1.2.955,1.572,1.843.9a8.5,8.5,0,0,0,.819-.823,9.929,9.929,0,0,0,1.571-3.219,9.263,9.263,0,0,0,.478-2.4,5.392,5.392,0,0,0-.2-1.8,1.052,1.052,0,0,0-1.366-.748,2.311,2.311,0,0,0-.956.673A9.393,9.393,0,0,0,431.276,37.511Z" fill="#74b95c"/>
        </g>
      </g>
      <g id="Group_52" data-name="Group 52">
        <g id="Group_51" data-name="Group 51">
          <path id="Path_78" data-name="Path 78" d="M410.724,33.618a11.507,11.507,0,0,1-1.5,5.69,10.2,10.2,0,0,1-3.618,3.968,5.058,5.058,0,0,1-7.853-3.144,11.32,11.32,0,0,1,.478-7.038,11.905,11.905,0,0,1,1.98-3.443,7.677,7.677,0,0,1,4.37-2.7,5.1,5.1,0,0,1,5.736,4.118l.205,1.123A10.39,10.39,0,0,1,410.724,33.618Zm-3.961-.3a5.261,5.261,0,0,0-.273-1.947,1.038,1.038,0,0,0-1.161-.673,1.716,1.716,0,0,0-.546.224,4.348,4.348,0,0,0-1.57,1.647,11.3,11.3,0,0,0-1.5,4.193,5.322,5.322,0,0,0,.068,2.321c.273.973.956,1.347,1.775.823a3.338,3.338,0,0,0,1.093-.9A9.82,9.82,0,0,0,406.763,33.319Z" fill="#74b95c"/>
        </g>
      </g>
      <g id="Group_54" data-name="Group 54">
        <g id="Group_53" data-name="Group 53">
          <path id="Path_79" data-name="Path 79" d="M478.048,38.634a2.385,2.385,0,0,0-.137.674c-.273,1.2-.546,2.4-.819,3.519a.873.873,0,0,1-.341.524,4.954,4.954,0,0,1-4.575.374,4.813,4.813,0,0,1-1.844-1.123,5.564,5.564,0,0,1-1.638-2.845,11.144,11.144,0,0,1,.273-5.989,10.675,10.675,0,0,1,4.37-5.839,5.677,5.677,0,0,1,3.618-.974,5.335,5.335,0,0,1,2.937,1.123,3.762,3.762,0,0,1,1.3,2.546,6.209,6.209,0,0,1-1.5,5.091A7.307,7.307,0,0,1,475.8,38.26a5.89,5.89,0,0,1-2.8,0,.48.48,0,0,1-.273-.075,2.105,2.105,0,0,0,1.366,2.1,3.139,3.139,0,0,0,1.16-.074,5,5,0,0,0,2.527-1.348c.068-.075.205-.15.273-.225Zm-5.121-3.518a.232.232,0,0,1,.136.075,4.778,4.778,0,0,0,3.21-.375,3.128,3.128,0,0,0,1.434-1.722,1.866,1.866,0,0,0-.41-1.946,1.143,1.143,0,0,0-1.571-.075c-.068,0-.068.075-.136.075a5.209,5.209,0,0,0-1.366,1.422A7.234,7.234,0,0,0,472.927,35.116Z" fill="#74b95c"/>
        </g>
      </g>
      <g id="Group_55" data-name="Group 55">
        <path id="Path_80" data-name="Path 80" d="M412.226,27.03h2.048c.546-2.4,1.161-4.866,1.707-7.262h4.438c-.546,2.4-1.092,4.792-1.707,7.262h2.8c-.342,1.273-.615,2.4-.888,3.669h-2.8c-.956,4.342-1.98,8.759-3.073,13.1h-4.438c1.024-4.342,2.048-8.684,3.141-13.1h-2.049C411.68,29.426,411.953,28.3,412.226,27.03Z" fill="#74b95c"/>
      </g>
      <g id="Group_56" data-name="Group 56">
        <path id="Path_81" data-name="Path 81" d="M418.986,43.8c1.98-8.385,4.028-16.77,6.008-25.155H429.5c-2.049,8.385-4.1,16.77-6.077,25.155Z" fill="#74b95c"/>
      </g>
      <g id="Group_57" data-name="Group 57">
        <path id="Path_82" data-name="Path 82" d="M467.191,37.811h0c0-.075.069-.075,0,0Z" fill="#74b95c"/>
      </g>
      <g id="Group_58" data-name="Group 58">
        <path id="Path_83" data-name="Path 83" d="M478.048,38.485c0,.075.068.075,0,0,.068.075,0,.075,0,0Z" fill="#74b95c"/>
      </g>
      <g id="Group_59" data-name="Group 59">
        <path id="Path_84" data-name="Path 84" d="M485.286,29.725l.068-.074S485.354,29.725,485.286,29.725Z" fill="#74b95c"/>
      </g>
      <g id="Group_66" data-name="Group 66">
        <g id="Group_65" data-name="Group 65">
          <g id="Group_64" data-name="Group 64">
            <g id="Group_61" data-name="Group 61">
              <g id="Group_60" data-name="Group 60">
                <path id="Path_85" data-name="Path 85" d="M494.434,41.733a2.28,2.28,0,0,1-2.221,2.388,2.252,2.252,0,0,1-2.221-2.388,2.223,2.223,0,0,1,2.263-2.343A2.18,2.18,0,0,1,494.434,41.733Zm-.545-.046a1.759,1.759,0,0,0-2.011-1.884,1.816,1.816,0,0,0-1.341,1.7,2,2,0,0,0,.587,1.608,1.694,1.694,0,0,0,1.718.321A1.766,1.766,0,0,0,493.889,41.687Z" fill="#314963"/>
              </g>
            </g>
            <g id="Group_63" data-name="Group 63">
              <g id="Group_62" data-name="Group 62">
                <path id="Path_86" data-name="Path 86" d="M491.836,42.973h-.461V40.584a2.487,2.487,0,0,1,1.3,0,.583.583,0,0,1,.335.919,2.351,2.351,0,0,1-.335.276c.461.229.377.735.545,1.194h-.461c-.042,0-.084-.092-.126-.138-.042-.138-.084-.321-.126-.459-.083-.322-.167-.368-.461-.368h-.251A7.421,7.421,0,0,1,491.836,42.973Zm.084-1.332c.167-.046.335-.046.5-.092a.346.346,0,0,0,.209-.322.285.285,0,0,0-.209-.275.934.934,0,0,0-.5,0Z" fill="#314963"/>
              </g>
            </g>
          </g>
        </g>
      </g>
      <g id="Group_67" data-name="Group 67">
        <path id="Path_87" data-name="Path 87" d="M493.373,39.512,501,34.939l-7.269-6.4.774,3.724a7.436,7.436,0,0,0-4.647.13,13.13,13.13,0,0,0-5.959,4.7l-1.906,7.578h4.647l1.073-4.05s1.787-3.92,4.528-4.573a3.3,3.3,0,0,1,2.145.522Z" fill="#314963"/>
      </g>
      <g id="Group_68" data-name="Group 68">
        <path id="Path_88" data-name="Path 88" d="M482.529,27.165l-.715,4.312h3.337l-.6,2.743a13.669,13.669,0,0,1,5.28-3.233l.019,0,.84-3.817h-8.165Z" fill="#74b95c"/>
      </g>
    </g>
  </g>
</svg>
