<svg xmlns="http://www.w3.org/2000/svg" width="80.635" height="80.635" viewBox="0 0 80.635 80.635">
  <g id="Group_127" data-name="Group 127" transform="translate(-679.85 -628.971)">
    <rect id="Rectangle_83" data-name="Rectangle 83" width="80.635" height="80.635" rx="40.317" transform="translate(679.85 628.971)" fill="#9da9bb"/>
    <g id="Group_126" data-name="Group 126">
      <g id="Group_125" data-name="Group 125">
        <path id="Path_89" data-name="Path 89" d="M733.709,676.415a18.216,18.216,0,0,0-7-4.675,11.559,11.559,0,0,0,4.621-9.345c0-6.253-4.775-11.34-10.644-11.34s-10.645,5.087-10.645,11.34a11.557,11.557,0,0,0,4.622,9.345,18.212,18.212,0,0,0-7,4.675,20.15,20.15,0,0,0-5.393,13.87h2.877c0-9.125,6.969-16.55,15.536-16.55s15.535,7.425,15.535,16.55H739.1A20.15,20.15,0,0,0,733.709,676.415ZM720.69,670.67a8.292,8.292,0,1,1,7.768-8.275A8.042,8.042,0,0,1,720.69,670.67Z" fill="#fff"/>
      </g>
    </g>
  </g>
</svg>
