<svg xmlns="http://www.w3.org/2000/svg" width="103.77" height="103.77" viewBox="0 0 103.77 103.77">
  <g id="Group_68" data-name="Group 68" transform="translate(-654.537 -250.527)">
    <rect id="Rectangle_81" data-name="Rectangle 81" width="103.77" height="103.77" rx="51.885" transform="translate(654.537 250.527)" fill="#9da9bb"/>
    <g id="Group_67" data-name="Group 67">
      <g id="Group_66" data-name="Group 66">
        <path id="Path_69" data-name="Path 69" d="M723.849,310.578a23.616,23.616,0,0,0-9-5.648,13.7,13.7,0,1,0-15.5,0,23.735,23.735,0,0,0-15.945,22.4h3.7a19.993,19.993,0,1,1,39.986,0h3.7A23.54,23.54,0,0,0,723.849,310.578Zm-16.755-6.94a10,10,0,1,1,10-10A10.008,10.008,0,0,1,707.094,303.638Z" fill="#fff"/>
      </g>
    </g>
  </g>
</svg>
